<!DOCTYPE svg PUBLIC "-//W3C//DTD SVG 1.1//EN" "http://www.w3.org/Graphics/SVG/1.1/DTD/svg11.dtd">
<!-- Uploaded to: SVG Repo, www.svgrepo.com, Transformed by: SVG Repo Mixer Tools -->
<svg fill="#ffff" version="1.1" id="Capa_1" xmlns="http://www.w3.org/2000/svg" xmlns:xlink="http://www.w3.org/1999/xlink" width="800px" height="800px" viewBox="0 0 31.948 31.947" xml:space="preserve" stroke="#ffff">
<g id="SVGRepo_bgCarrier" stroke-width="0"/>
<g id="SVGRepo_tracerCarrier" stroke-linecap="round" stroke-linejoin="round"/>
<g id="SVGRepo_iconCarrier"> <g> <path d="M3.685,7.066l2.094-5.343l4.566,1.789L8.251,8.855L3.685,7.066z M22.237,13.657l1.574-4.02L10.718,4.509L9.143,8.527 L22.237,13.657z M24.815,14.207l1.266-3.226l-2.028-0.795l-1.265,3.226L24.815,14.207z M26.311,11.557l-0.977,2.491l1.764,0.691 l0.977-2.491L26.311,11.557z M29.278,12.326L29,13.036l-0.762-0.298l-0.707,1.807l0.762,0.297l-0.278,0.709l1.278,0.504 l1.265-3.227L29.278,12.326z M5.432,0.538L4.059,0l-2.67,6.813l1.374,0.538L5.432,0.538z M14.753,17.539l10.25,14.188l-1.305,0.221 l-9.776-13.499v13.278H12.71V18.342L3.017,31.727H1.786l10.028-14.188h-1.079v-5.213h5.16v5.213H14.753z M14.293,14.932 c0-0.496-0.401-0.896-0.895-0.896c-0.495,0-0.896,0.399-0.896,0.896c0,0.498,0.401,0.895,0.896,0.895 C13.892,15.827,14.293,15.428,14.293,14.932z"/> </g> </g>
</svg>